<mxfile host="Electron" agent="Mozilla/5.0 (Windows NT 10.0) AppleWebKit/537.36 (KHTML, like Gecko) draw.io/27.0.9 Chrome/134.0.6998.205 Electron/35.4.0 Safari/537.36" version="27.0.9">
  <diagram id="Xb-PZCZlOUzePBldmh3a" name="Page-1">
    <mxGraphModel dx="931" dy="683" grid="1" gridSize="10" guides="1" tooltips="1" connect="1" arrows="1" fold="1" page="1" pageScale="1" pageWidth="827" pageHeight="1169" math="0" shadow="0">
      <root>
        <mxCell id="0" />
        <mxCell id="1" parent="0" />
        <mxCell id="qCYacudvjKmfDI2QwlbK-9" value="" style="rounded=1;whiteSpace=wrap;html=1;fillColor=none;dashed=1;arcSize=4;strokeColor=#7EA6E0;align=center;labelPosition=center;verticalLabelPosition=bottom;verticalAlign=top;fontColor=#7EA6E0;" vertex="1" parent="1">
          <mxGeometry x="220" y="800" width="462" height="340" as="geometry" />
        </mxCell>
        <mxCell id="qCYacudvjKmfDI2QwlbK-2" value="" style="rounded=1;whiteSpace=wrap;html=1;fillColor=#f5f5f5;arcSize=4;strokeColor=#E6E6E6;align=center;labelPosition=center;verticalLabelPosition=bottom;verticalAlign=top;fontColor=#333333;" vertex="1" parent="1">
          <mxGeometry x="266" y="870" width="396" height="250" as="geometry" />
        </mxCell>
        <mxCell id="kNVfcnSFznMPaCu2oks6-7" value="Azure Static WebApp&lt;br&gt;Standard Plan" style="rounded=1;whiteSpace=wrap;html=1;fillColor=none;dashed=1;arcSize=4;strokeColor=#7EA6E0;align=center;labelPosition=center;verticalLabelPosition=bottom;verticalAlign=top;fontColor=#7EA6E0;" parent="1" vertex="1">
          <mxGeometry x="172" y="40" width="234" height="290" as="geometry" />
        </mxCell>
        <mxCell id="JIw5yIVVrK0UEaDajLSU-1" value="Azure Firewall" style="sketch=0;aspect=fixed;html=1;points=[];align=center;image;fontSize=12;image=img/lib/mscae/Azure_Firewall.svg;fontColor=#000000;" parent="1" vertex="1">
          <mxGeometry x="533.5" y="600" width="50" height="50" as="geometry" />
        </mxCell>
        <mxCell id="JIw5yIVVrK0UEaDajLSU-2" value="Azure Event Hub" style="aspect=fixed;html=1;points=[];align=center;image;fontSize=12;image=img/lib/azure2/analytics/Event_Hub_Clusters.svg;fontColor=#000000;" parent="1" vertex="1">
          <mxGeometry x="526.5" y="390" width="64" height="52" as="geometry" />
        </mxCell>
        <mxCell id="JIw5yIVVrK0UEaDajLSU-3" value="&lt;div style=&quot;font-size: 12px;&quot;&gt;&lt;b style=&quot;color: light-dark(rgb(0, 0, 0), rgb(237, 237, 237));&quot;&gt;Az-Firewall-mon&lt;/b&gt;&lt;/div&gt;&lt;i style=&quot;&quot;&gt;&lt;font style=&quot;color: rgb(102, 102, 255);&quot;&gt;&lt;u style=&quot;&quot;&gt;https://az-firewall-mon.duckiesfarm.com&lt;/u&gt;&lt;/font&gt;&lt;/i&gt;&lt;b style=&quot;font-size: 12px;&quot;&gt;&lt;br&gt;&lt;/b&gt;" style="aspect=fixed;html=1;points=[];align=center;image;fontSize=12;image=img/lib/azure2/containers/App_Services.svg;fontColor=#000000;" parent="1" vertex="1">
          <mxGeometry x="266" y="240" width="42" height="42" as="geometry" />
        </mxCell>
        <mxCell id="JIw5yIVVrK0UEaDajLSU-4" value="Structured&lt;br style=&quot;font-size: 12px;&quot;&gt;Logs" style="endArrow=classic;html=1;rounded=0;fontColor=#000000;fontSize=12;strokeColor=#7EA6E0;" parent="1" edge="1">
          <mxGeometry width="50" height="50" relative="1" as="geometry">
            <mxPoint x="556" y="592" as="sourcePoint" />
            <mxPoint x="556" y="480" as="targetPoint" />
            <mxPoint as="offset" />
          </mxGeometry>
        </mxCell>
        <mxCell id="JIw5yIVVrK0UEaDajLSU-5" value="Events" style="endArrow=classic;html=1;rounded=0;fontColor=#000000;fontSize=12;strokeColor=#7EA6E0;" parent="1" edge="1">
          <mxGeometry width="50" height="50" relative="1" as="geometry">
            <mxPoint x="555" y="380" as="sourcePoint" />
            <mxPoint x="555.16" y="260" as="targetPoint" />
            <Array as="points" />
          </mxGeometry>
        </mxCell>
        <mxCell id="QNq35E5Y383en_XDT51g-1" value="Azure Map&lt;br style=&quot;font-size: 12px;&quot;&gt;account" style="image;aspect=fixed;html=1;points=[];align=center;fontSize=12;image=img/lib/azure2/iot/Azure_Maps_Accounts.svg;fontColor=#000000;" parent="1" vertex="1">
          <mxGeometry x="76" y="70" width="40" height="40" as="geometry" />
        </mxCell>
        <mxCell id="QNq35E5Y383en_XDT51g-2" value="" style="endArrow=classic;html=1;rounded=0;fontColor=#000000;fontSize=12;strokeColor=#7EA6E0;" parent="1" edge="1">
          <mxGeometry width="50" height="50" relative="1" as="geometry">
            <mxPoint x="256" y="140" as="sourcePoint" />
            <mxPoint x="126" y="90" as="targetPoint" />
            <Array as="points">
              <mxPoint x="196" y="140" />
              <mxPoint x="196" y="90" />
            </Array>
          </mxGeometry>
        </mxCell>
        <mxCell id="QNq35E5Y383en_XDT51g-4" value="application&amp;nbsp;&lt;div&gt;insight&lt;/div&gt;" style="image;aspect=fixed;html=1;points=[];align=center;fontSize=12;image=img/lib/azure2/management_governance/Application_Insights.svg;fontColor=#000000;" parent="1" vertex="1">
          <mxGeometry x="326" y="20" width="27.94" height="40" as="geometry" />
        </mxCell>
        <mxCell id="QNq35E5Y383en_XDT51g-7" value="" style="endArrow=classic;html=1;rounded=0;fontColor=#000000;fontSize=12;strokeColor=#7EA6E0;" parent="1" edge="1">
          <mxGeometry x="0.0476" y="-10" width="50" height="50" relative="1" as="geometry">
            <mxPoint x="696" y="198.5" as="sourcePoint" />
            <mxPoint x="596" y="197.5" as="targetPoint" />
            <mxPoint as="offset" />
          </mxGeometry>
        </mxCell>
        <mxCell id="kNVfcnSFznMPaCu2oks6-2" value="SPA&lt;div&gt;web app&lt;/div&gt;" style="image;aspect=fixed;html=1;points=[];align=center;fontSize=12;image=img/lib/azure2/general/Browser.svg;fontColor=#000000;" parent="1" vertex="1">
          <mxGeometry x="526.5" y="178" width="52.5" height="42" as="geometry" />
        </mxCell>
        <mxCell id="kNVfcnSFznMPaCu2oks6-3" value="firewall mon&amp;nbsp;&lt;div&gt;operator&lt;/div&gt;" style="image;aspect=fixed;html=1;points=[];align=center;fontSize=12;image=img/lib/azure2/management_governance/User_Privacy.svg;fontColor=#000000;" parent="1" vertex="1">
          <mxGeometry x="706" y="175.25" width="44" height="46.75" as="geometry" />
        </mxCell>
        <mxCell id="kNVfcnSFznMPaCu2oks6-4" value="Azure Openai" style="shape=image;verticalLabelPosition=bottom;labelBackgroundColor=default;verticalAlign=top;aspect=fixed;imageAspect=0;image=data:image/svg+xml,PHN2ZyB4bWxucz0iaHR0cDovL3d3dy53My5vcmcvMjAwMC9zdmciIHN0cm9rZS1taXRlcmxpbWl0PSIyIiBzdHJva2UtbGluZWpvaW49InJvdW5kIiBjbGlwLXJ1bGU9ImV2ZW5vZGQiIGZpbGwtcnVsZT0iZXZlbm9kZCIgdmlld0JveD0iMCAwIDUxMiA1MTIiPjxwYXRoIGZpbGwtcnVsZT0ibm9uemVybyIgZD0iTTQ3NC4xMjMgMjA5LjgxYzExLjUyNS0zNC41NzcgNy41NjktNzIuNDIzLTEwLjgzOC0xMDMuOTA0LTI3LjY5Ni00OC4xNjgtODMuNDMzLTcyLjk0LTEzNy43OTQtNjEuNDE0YTEyNy4xNCAxMjcuMTQgMCAwMC05NS40NzUtNDIuNDljLTU1LjU2NCAwLTEwNC45MzYgMzUuNzgxLTEyMi4xMzkgODguNTkzLTM1Ljc4MSA3LjM5Ny02Ni41NzQgMjkuNzYtODQuNjM3IDYxLjQxNC0yNy44NjggNDguMTY3LTIxLjUwMyAxMDguNzIgMTUuODI2IDE1MC4wMDctMTEuNTI1IDM0LjU3OC03LjU2OSA3Mi40MjQgMTAuODM4IDEwMy43MzMgMjcuNjk2IDQ4LjM0IDgzLjQzMyA3My4xMTEgMTM3Ljk2NiA2MS41ODUgMjQuMDg0IDI3LjE4IDU4LjgzMyA0Mi44MzUgOTUuMzAzIDQyLjY2MyA1NS41NjQgMCAxMDQuOTM2LTM1Ljc4MiAxMjIuMTM5LTg4LjU5NCAzNS43ODItNy4zOTcgNjYuNTc0LTI5Ljc2IDg0LjQ2NS02MS40MTMgMjguMDQtNDguMTY4IDIxLjY3Ni0xMDguNzIyLTE1LjY1NC0xNTAuMDA4di0uMTcyem0tMzkuNTY3LTg3LjIxOGMxMS4wMSAxOS4yNjcgMTUuMTM5IDQxLjgwMyAxMS4zNTQgNjMuNjUtLjY4OC0uNTE2LTIuMDY0LTEuMjA0LTIuOTI0LTEuNzJsLTEwMS4xNTItNTguNDlhMTYuOTY1IDE2Ljk2NSAwIDAwLTE2LjY4NyAwTDIwNi42MjEgMTk0LjV2LTUwLjIzMmw5Ny44ODMtNTYuNTk3YzQ1LjU4Ny0yNi4zMiAxMDMuNzMyLTEwLjY2NiAxMzAuMDUyIDM0LjkyMXptLTIyNy45MzUgMTA0LjQybDQ5Ljg4OC0yOC45IDQ5Ljg4NyAyOC45djU3LjYzbC00OS44ODcgMjguOS00OS44ODgtMjguOXYtNTcuNjN6bTIzLjIyMy0xOTEuODFjMjIuMzY0IDAgNDMuODY3IDcuNzQyIDYxLjA3IDIyLjAyLS42ODguMzQ0LTIuMDY0IDEuMjA0LTMuMDk3IDEuNzJMMTg2LjY2NiAxMTcuMjZjLTUuMTYxIDIuOTI1LTguMjU4IDguNDMtOC4yNTggMTQuNDV2MTM2LjkzNGwtNDMuNTIzLTI1LjExNlYxMzAuMzMzYzAtNTIuNjQgNDIuNDkxLTk1LjEzIDk1LjEzMS05NS4zMDJsLS4xNzIuMTcyek01Mi4xNCAxNjguNjk3YzExLjE4Mi0xOS4yNjggMjguNTU3LTM0LjA2MiA0OS41NDQtNDEuODAzVjI0Ny4xNGMwIDYuMDIgMy4wOTcgMTEuMzU0IDguMjU4IDE0LjQ1bDExOC4zNTQgNjguMjk1LTQzLjY5NSAyNS4yODgtOTcuNzExLTU2LjQyNWMtNDUuNDE1LTI2LjMyLTYxLjA3LTg0LjQ2NS0zNC43NS0xMzAuMDUyem0yNi42NjUgMjIwLjcxYy0xMS4xODItMTkuMDk1LTE1LjEzOS00MS44MDItMTEuMzU0LTYzLjY1LjY4OC41MTYgMi4wNjQgMS4yMDQgMi45MjQgMS43MmwxMDEuMTUyIDU4LjQ5YTE2Ljk2NSAxNi45NjUgMCAwMDE2LjY4NyAwbDExOC4zNTQtNjguNDY3djUwLjIzMmwtOTcuODgzIDU2LjQyNWMtNDUuNTg3IDI2LjE0OC0xMDMuNzMyIDEwLjY2NS0xMzAuMDUyLTM0Ljc1aC4xNzJ6bTIwNC41NCA4Ny4zOWMtMjIuMTkyIDAtNDMuODY3LTcuNzQxLTYwLjg5OC0yMi4wMmE2Mi40MzkgNjIuNDM5IDAgMDAzLjA5Ny0xLjcybDEwMS4xNTItNTguMzE3YzUuMTYtMi45MjQgOC40MjktOC40MyA4LjI1Ny0xNC40NVYyNDMuNTI3bDQzLjUyMyAyNS4xMTZ2MTEzLjAyMmMwIDUyLjY0LTQyLjY2MyA5NS4zMDMtOTUuMTMxIDk1LjMwM3YtLjE3MnpNNDYxLjIyIDM0My4zMDNjLTExLjE4MiAxOS4yNjctMjguNzI5IDM0LjA2MS00OS41NDQgNDEuNjNWMjY0LjY4N2MwLTYuMDIxLTMuMDk3LTExLjUyNi04LjI1Ny0xNC40NUwyODQuODkzIDE4MS43N2w0My41MjMtMjUuMTE2IDk3Ljg4MyA1Ni40MjRjNDUuNTg3IDI2LjMyIDYxLjA3IDg0LjQ2NiAzNC43NSAxMzAuMDUzbC4xNzIuMTcyeiIvPjwvc3ZnPg==;" parent="1" vertex="1">
          <mxGeometry x="76" y="200" width="40" height="40" as="geometry" />
        </mxCell>
        <mxCell id="kNVfcnSFznMPaCu2oks6-5" value="" style="endArrow=classic;html=1;rounded=0;fontColor=#000000;fontSize=12;strokeColor=#7EA6E0;" parent="1" edge="1">
          <mxGeometry width="50" height="50" relative="1" as="geometry">
            <mxPoint x="256" y="160" as="sourcePoint" />
            <mxPoint x="126" y="220" as="targetPoint" />
            <Array as="points">
              <mxPoint x="196" y="160" />
              <mxPoint x="196" y="220" />
            </Array>
          </mxGeometry>
        </mxCell>
        <mxCell id="ztiUfNF0meDesXnQGHYJ-1" value="API" style="image;aspect=fixed;html=1;points=[];align=center;fontSize=12;image=img/lib/azure2/compute/Function_Apps.svg;" parent="1" vertex="1">
          <mxGeometry x="267.20000000000005" y="130" width="47.6" height="42" as="geometry" />
        </mxCell>
        <mxCell id="ztiUfNF0meDesXnQGHYJ-2" value="" style="endArrow=classic;html=1;rounded=0;fontColor=#000000;fontSize=12;strokeColor=#7EA6E0;" parent="1" edge="1">
          <mxGeometry width="50" height="50" relative="1" as="geometry">
            <mxPoint x="506" y="200.07999999999998" as="sourcePoint" />
            <mxPoint x="346" y="200" as="targetPoint" />
            <mxPoint as="offset" />
            <Array as="points" />
          </mxGeometry>
        </mxCell>
        <mxCell id="ztiUfNF0meDesXnQGHYJ-3" value="Microsoft&lt;div&gt;Account&lt;/div&gt;" style="image;aspect=fixed;html=1;points=[];align=center;fontSize=12;image=img/lib/azure2/other/Entra_Identity.svg;" parent="1" vertex="1">
          <mxGeometry x="236" y="20" width="45" height="40" as="geometry" />
        </mxCell>
        <mxCell id="qCYacudvjKmfDI2QwlbK-1" value="your subscription" style="image;sketch=0;aspect=fixed;html=1;points=[];align=left;fontSize=12;image=img/lib/mscae/Key.svg;labelPosition=right;verticalLabelPosition=bottom;verticalAlign=top;" vertex="1" parent="1">
          <mxGeometry x="209" y="787" width="24.8" height="40" as="geometry" />
        </mxCell>
        <mxCell id="qCYacudvjKmfDI2QwlbK-3" value="firewall-mon-playground" style="image;aspect=fixed;html=1;points=[];align=left;fontSize=12;image=img/lib/azure2/general/Resource_Groups.svg;labelPosition=right;verticalLabelPosition=bottom;verticalAlign=top;" vertex="1" parent="1">
          <mxGeometry x="249.01999999999998" y="855" width="36.13" height="34" as="geometry" />
        </mxCell>
        <mxCell id="qCYacudvjKmfDI2QwlbK-4" value="&lt;div style=&quot;font-size: 12px;&quot;&gt;my-firewall-mon-web&lt;/div&gt;" style="aspect=fixed;html=1;points=[];align=center;image;fontSize=12;image=img/lib/azure2/containers/App_Services.svg;fontColor=#000000;" vertex="1" parent="1">
          <mxGeometry x="336.02" y="934" width="42" height="42" as="geometry" />
        </mxCell>
        <mxCell id="qCYacudvjKmfDI2QwlbK-5" value="firewall-mon-insight" style="image;aspect=fixed;html=1;points=[];align=center;fontSize=12;image=img/lib/azure2/management_governance/Application_Insights.svg;" vertex="1" parent="1">
          <mxGeometry x="342" y="1020" width="30.04" height="43" as="geometry" />
        </mxCell>
        <mxCell id="qCYacudvjKmfDI2QwlbK-6" value="firewall-mon-insight&lt;br&gt;workspace" style="image;aspect=fixed;html=1;points=[];align=center;fontSize=12;image=img/lib/azure2/management_governance/Log_Analytics_Workspaces.svg;" vertex="1" parent="1">
          <mxGeometry x="457" y="1020" width="43" height="43" as="geometry" />
        </mxCell>
        <mxCell id="qCYacudvjKmfDI2QwlbK-7" value="firewall-mon-maps" style="image;aspect=fixed;html=1;points=[];align=center;fontSize=12;image=img/lib/azure2/iot/Azure_Maps_Accounts.svg;" vertex="1" parent="1">
          <mxGeometry x="456" y="934" width="44" height="44" as="geometry" />
        </mxCell>
        <mxCell id="qCYacudvjKmfDI2QwlbK-8" value="firewall-mon-openai" style="image;aspect=fixed;html=1;points=[];align=center;fontSize=12;image=img/lib/azure2/ai_machine_learning/Azure_OpenAI.svg;" vertex="1" parent="1">
          <mxGeometry x="582" y="1028" width="35" height="35" as="geometry" />
        </mxCell>
      </root>
    </mxGraphModel>
  </diagram>
</mxfile>
